<svg width="34" height="34" viewBox="0 0 34 34" fill="none" xmlns="http://www.w3.org/2000/svg">
<path d="M16.8651 12.9524H20.2381V8.09524H25.2976V4.85714H20.2381V0H16.8651V4.85714H11.8056V8.09524H16.8651V12.9524ZM10.119 27.5238C8.26389 27.5238 6.7629 28.981 6.7629 30.7619C6.7629 32.5429 8.26389 34 10.119 34C11.9742 34 13.4921 32.5429 13.4921 30.7619C13.4921 28.981 11.9742 27.5238 10.119 27.5238ZM26.9841 27.5238C25.129 27.5238 23.628 28.981 23.628 30.7619C23.628 32.5429 25.129 34 26.9841 34C28.8393 34 30.3571 32.5429 30.3571 30.7619C30.3571 28.981 28.8393 27.5238 26.9841 27.5238ZM10.4058 22.2619L10.4563 22.0676L11.9742 19.4286H24.5387C25.8036 19.4286 26.9167 18.7648 27.4901 17.761L34 6.41143L31.0655 4.85714H31.0486L29.1935 8.09524L24.5387 16.1905H12.6994L12.4802 15.7533L8.70238 8.09524L7.1002 4.85714L5.51488 1.61905H0V4.85714H3.37302L9.44444 17.1457L7.16766 21.1124C6.89782 21.5657 6.74603 22.1 6.74603 22.6667C6.74603 24.4476 8.26389 25.9048 10.119 25.9048H30.3571V22.6667H10.8274C10.6081 22.6667 10.4058 22.4886 10.4058 22.2619Z" fill="white"/>
</svg>
